<svg xmlns="http://www.w3.org/2000/svg" width="47.07583" height="47.209134" viewBox="0 0 12.45548 12.49075"><g transform="translate(-117.764455 -233.51095)"><path d="M118.04002 233.70965q.0662-.0662.16563-.0994.0994-.0331.23189-.0331H129.30299q.13251 0 .27743-.0124l.14493-.0124-.0124-.0207-.0124-.0207.0248.0414q.0248.0414.0745.058l.0497.0166-.0745-.0248-.0745-.0248.0994.0331q.0994.0331.13251.13251l.0331.0994H118.43758q-.13251 0-.23188.0331-.0994.0331-.13251.13251-.0331.0994-.0331.23188V245.50282H117.77508v-.1325-.26501-.26501-.26501-.26502-.26501-.26501-.26501-.26501-.26501-.26501-.26501-.26501-.26502-.26501-.26501-.26501-.26501-.26501-.26501-.26501-.26501-.26502-.26501-.26501-.26501-.26501-.26501-.26501-.26501-.26501-.26502-.26501-.26501-.26501-.26501-.26501-.26501-.26501-.26501-.26502-.26501-.26501q0-.1325.0331-.23188.0331-.0994.0994-.16563.0662-.0663.1325-.13251m-.0994 11.79299h.1656-.265.0994" fill="#eeb150"/><path d="M129.68992 233.94367v-.1325H129.95493V245.07414q0 .13251-.0331.23189-.0331.0994-.0994.16563l-.1325.1325q-.0662.0663-.16563.0994-.0994.0331-.23189.0331H118.16195q-.13251 0-.23189-.0331-.0994-.0331-.1325-.1325l-.0331-.0994h1.45756q.13251 0 .28157-.0166l.14907-.0166-.0166-.0166-.0166-.0166.0331.0331q.0331.0331.0994.0331h.0662-.1988 1.85507-.1988.0662q.0662 0 .0994-.0331l.0331-.0331-.0166.0166-.0166.0166.14907.0166q.14907.0166.28157.0166h.53002q.13251 0 .28158-.0166l.14907-.0166-.0166-.0166-.0166-.0166.0331.0331q.0331.0331.0994.0331h.0662-.1988H124.65422h-.1988.0662q.0662 0 .0994-.0331l.0331-.0331-.0166.0166-.0166.0166.14907.0166q.14907.0166.28157.0166H129.29174q.13251 0 .23189-.0331.0994-.0331.1325-.1325.0331-.0994.0331-.23189v-.26501-.26501-.26501-.26501-.26501-.26502-.26501-.26501-.26501-.26501-.26501-.26501-.26501-.26501-.26502-.26501-.26501-.26501-.26501-.26501-.26501-.26501-.26501-.26502-.26501-.26501-.26501-.26501-.26501-.26501-.26501-.26501-.26502-.26501-.26501-.26501-.26501-.26501-.26501-.26501-.26501-.26502m.0994-.1325h-.1656.265-.0994" fill="#a97017"/><path d="M129.95493 233.94367v-.1325H130.21994V245.47166l-.0994.0331q-.0994.0331-.16563.0994-.0662.0663-.13251.13251-.0662.0663-.0994.16563l-.0331.0994H118.02941l.004-.13665.004-.13664-.029-.004-.029-.004.058.008q.058.008.12422.008h.0663-.1988H129.2921q.1325 0 .23188-.0331.0994-.0331.16564-.0994.0662-.0662.1325-.13251.0662-.0662.0994-.16563.0331-.0994.0331-.23188v-.26501-.26501-.26502-.26501-.26501-.26501-.26501-.26501-.26501-.26501-.26501-.26502-.26501-.26501-.26501-.26501-.26501-.26501-.26501-.26501-.26502-.26501-.26501-.26501-.26501-.26501-.26501-.26501-.26501-.26502-.26501-.26501-.26501-.26501-.26501-.26501-.26501-.26501-.26502-.26501-.26501-.26501" fill="#2f1f06"/><rect ry=".236228" rx=".236228" y="233.84346" x="118.04008" height="11.653257" width="11.663323" fill="#d68d1a"/><text transform="scale(1.19268 .83845)" y="291.79257" x="99.585159" style="line-height:1.25;-inkscape-font-specification:'Arial Bold'" font-weight="700" font-size="3.841999" font-family="Arial" letter-spacing="0" word-spacing="0" stroke-width=".09605"><tspan style="-inkscape-font-specification:'Arial Bold'" y="291.79257" x="99.585159">6</tspan></text><text style="line-height:1.25;-inkscape-font-specification:'Arial Bold'" x="100.18143" y="299.45123" transform="scale(1.22432 .81678)" font-weight="700" font-size="3.742715" font-family="Arial" letter-spacing="0" word-spacing="0" stroke-width=".093568"><tspan x="100.18143" y="299.45123" style="-inkscape-font-specification:'Arial Bold'">2</tspan></text><text transform="scale(1.19268 .83845)" y="291.7428" x="105.89471" style="line-height:1.25;-inkscape-font-specification:'Arial Bold'" font-weight="700" font-size="3.841999" font-family="Arial" letter-spacing="0" word-spacing="0" stroke-width=".09605"><tspan style="-inkscape-font-specification:'Arial Bold'" y="291.7428" x="105.89471">8</tspan></text><path d="M122.76384 245.08008q.0415-.0994.16628-.13251.12474-.0331.29099-.0331h1.33027q.16627 0 .29099.0331.12473.0331.16628.13251.0415.0994-.12473.0994h-1.9954q-.16627 0-.12473-.0994M118.93436 245.08843q.0415-.0994.16628-.13251.12474-.0331.29099-.0331h1.33027q.16627 0 .29099.0331.12473.0331.16628.13251.0415.0994-.12473.0994h-1.9954q-.16627 0-.12473-.0994"/><rect ry=".174981" rx=".139042" y="243.46602" x="121.48363" height=".371201" width="1.081526"/><rect width="1.081526" height=".371201" x="125.33426" y="243.41878" rx=".139042" ry=".174981"/><path d="M120.48994 234.12849c-.0442 0-.0854.003-.12402.008v-.00051c-.0386.005-.0744.0137-.10749.0248l-.0496.0171.0496-.0165c-.0646.0216-.1187.0536-.16226.0961l-.002.001c-.00059.00058-.001.001-.002.002l-.0155.0165v.00052l-.0496.0491h-.00052l-.0496.0496-.0165.0165c-.0441.044-.0771.0993-.0992.16536l.0165-.0496-.0176.0496c-.0112.0331-.0195.0693-.0248.10801l.12868-.004.12815-.004h.26561v-.2651h.26407v.12971l-.00052-.00052v.13229l.13694-.004.12868-.004v.00052l-.12868.004-.13642.004h-.13229l-.13178.003v.00052h-.13281c-.0883 0-.17538.001-.26096.004l-.12816.004c-.005.0387-.008.0804-.008.12454h-.00052c0 .0442-.003.0859-.008.12454l.001.00052c-.005.0382-.0138.0736-.0248.10645l-.017.0496.0165-.0496h-.001c-.0221.0663-.0551.12175-.0992.16589-.0332.0331-.0666.066-.0997.0992l-.0331.0331-.0165.0165-.0496.0496h-.00052l-.0496.0496-.0155.016-.001.00052-.0331.0336-.0982.0982c-.0442.0441-.0887.0886-.13281.13281-.0442.0442-.0772.0991-.0992.16537-.0112.0331-.0195.0693-.0248.108l.12816-.004.12713-.004h.00151l-.00052.001h.00052c-.006.0165-.011.0331-.0165.0496l-.009.0253c.008-.0249.0165-.05.0248-.0749l-.12764.004-.12868.004c-.005.0386-.008.0798-.008.12403h-.00052v.13281l-.0987.0326c-.0663.0221-.11074.0665-.13281.13281-.0111.0328-.0195.0682-.0248.10645l-.001.00052c-.005.0387-.008.0799-.008.12402v.1328l.0992-.0331c.0663-.0221.12175-.0556.16588-.0997.0442-.0441.0882-.0661.13229-.0661l.00052.00052c-.0436 0-.087.022-.13074.0651l-.002.001c-.022.022-.0464.0419-.0739.0584h-.00051v-.00052c-.0275.0164-.058.0308-.091.0419h-.00052l-.0496.0165-.0496.0165v.52968h.26458v.00052H118.76718v.26458l.004.12868.00052.00051.004.12816c.0361.005.0753.007.11627.008h-.12492v.2651h.008l-.004.12816h-.00052l-.004.13694h.001v.13229c0 .0441.002.0859.008.12455l.0951-.0289c.0635-.0193.10662-.0624.12868-.12868l.00051.00052c-.0221.0662-.0652.10934-.12867.12867l-.0951.0289c.005.0386.0137.0744.0248.10749.0221.0662.0556.12168.0997.16588h-.00051c.0221.0221.0419.0468.0584.0744.0163.0274.0299.0577.0408.0904h.00051c.0112.0331.0195.0688.0248.10748h-.00052c.005.0387.008.0804.008.12455v.3973l-.0992.0331c-.0663.0221-.11073.066-.1328.13229l-.0331.0997-.0992.0331c-.0663.0221-.11073.066-.1328.13229h.00051l-.002.005c-.00037.001-.00066.002-.001.004l-.005.0155.004-.0119c-.009.0299-.018.0612-.0227.0956-.005.0387-.008.0799-.008.12402V240.62146l.00052-.00052v.1328h-.00052v.2651l-.0992.0331c-.0663.0221-.11023.0666-.13229.13281l-.00051-.00051c-.0112.0331-.0195.0688-.0248.10748l.13229-.008.13281-.008v.00052l-.13281.008-.13229.008c-.005.0385-.008.0806-.008.12454l.00052.00052c0 .0441.002.0859.008.12454h.00051c.005.0382.0133.0736.0243.10645.0221.0663.0665.11022.13281.13229.0329.0112.0685.0195.10697.0248l.00052.002c.0386.005.0798.008.12402.008h.1328v-.001h.26501l.0992-.0331c.0662-.0221.10883-.0652.12816-.12868l.0289-.0951c-.0387-.005-.0799-.008-.12402-.008-.0442 0-.0771-.0115-.0992-.0336-.0219-.0221-.0331-.0553-.0331-.0992v-.13178l.0992-.0331c.0663-.0221.11022-.066.13229-.13229.0112-.0331.0195-.0693.0248-.108l-.12402.008-.12402.008c.006-.0386.0138-.0744.0248-.10749l.00052-.00052c-.0112.0331-.0195.0688-.0248.10749l.12403-.008.12402-.008c.005-.0386.008-.0798.008-.12402v-.1328l.0992-.0331c.0663-.0221.11075-.066.13281-.13229l.0331-.0992.0992-.0331c.0663-.0221.11022-.0665.13229-.13281.0112-.0331.0195-.0688.0248-.10748.005-.0387.008-.0804.008-.12454v-.1323l.0997-.0331c.0663-.0221.11022-.0665.13229-.13281l.0331-.0992-.0331-.0992c-.0221-.0663-.066-.11073-.13229-.1328l-.0997-.0331v.2651h-.26459v-.2651h.26459l-.0331-.0992c-.0111-.0331-.0248-.0583-.0413-.0749-.0165-.0166-.0358-.0248-.0579-.0248.0221 0 .0413.008.0579.0248l.0744-.0827.0744-.0827c.0263.0158.056.0285.0873.0393l.00052.00052c.001.00044.002.001.004.002l.0248.008v-.00052c.0248.008.0496.0165.0744.0248v-.52917h.2651v.26458l.0331.0997c.0221.0663.0665.11023.1328.13229l.0992.0331V239.56209c0 .0441-.003.0854-.008.12403-.005.0386-.0137.0744-.0248.10748-.0111.0331-.0275.0606-.0496.0827l.0827.0827.0827.0827c.0219-.0219.0494-.038.0822-.0491-.066.0221-.10975.0662-.13177.13229l-.0331.0997.0992.0331c.0663.0221.11074.066.13281.13229.0221.0663.0331.1437.0331.23203v.53024h.00052c0 .0442.002.0854.008.12402.005.0386.0137.0744.0248.10749.0221.0663.066.11022.1323.13229l.0992.0331v-.2651l-.0868-.003c.0267-.001.0539-.002.0785-.005h.00051c.0384-.005.0745-.0138.10749-.0248l-.0992.0331v.2651h.008l-.004.12816h-.00051l-.004.13642h.53018v-.26458H122.47682l-.0331-.0997c-.0221-.0663-.0665-.11022-.13281-.13229l-.0992-.0331v-.1329c0-.0442.008-.0799.0248-.10749.0165-.0276.0413-.0468.0744-.0579.0663-.0221.11075-.066.13281-.13229l.0331-.0997.0992-.0331c.0663-.0221.11075-.066.13281-.13229l.0331-.0997h-.00051l-.0992.0336-.0248.008-.0744.0243.0992-.0331.0992-.0331v-.26458h-.26459v-.2651l.0992-.0331c.0663-.0221.11022-.066.13229-.13229l-.0165.0496.0171-.0496c.0112-.0331.0195-.0693.0248-.108.005-.0386.008-.0798.008-.12402v-.1323l-.12816.004-.12816.004v-.00052l.12868-.004.12815-.004v-.00052l.004-.12764.004-.12816c.0385-.005.08-.008.12403-.008.0442 0 .0766.011.0987.0331v-.00051l.11575.0165.00052.00052-.11576-.0165c.0217.0221.0331.0554.0331.0992h.00051v.1323h-.00051v.265h.00051l.004.13643h.00052l.004.12867h-.009l-.0992.0331c-.0663.0221-.11023.066-.13229.13229l-.0331.0997v.26459l.0992-.0331c.0663-.0221.11022-.066.13229-.13229l.0331-.0992h.2651v-.00051h.13229c.0883 0 .16576.011.23203.0331.0331.011.0606.0275.0827.0496-.022-.0218-.0498-.0381-.0827-.0491-.0663-.0221-.14318-.0331-.23151-.0331h-.1328v1.19222h.00051v.00052c.00002.0438.002.0851.008.1235v.00052c.005.0384.0138.0745.0248.10749.022.066.0659.10963.13178.13177v.00052h.00103c.0331.0112.0688.0195.10749.0248v.00052c.0385.005.0806.008.12454.008h.66271l.0992-.0331c.0663-.0221.11022-.0665.13229-.13281l.0331-.0992h-.52968v-.00052h.52916l.0331-.0997v-.00052h.00051l-.0331.0997H125.65724l-.004-.13643-.004-.13642c.0385-.006.074-.0138.10697-.0248.0662-.0221.12117-.0556.16537-.0997.0442-.0441.0887-.0881.13281-.1323.0442-.0441.0661-.0886.0661-.1328 0-.0218-.005-.0381-.016-.0491l.0744-.0744c.0497-.0497.0634-.10737.0413-.17363l-.0331-.0997h.2651l-.0331.0997c-.0221.0663-.008.12396.0413.17363l.0744.0744v.00052c.0219-.0219.0499-.0391.0827-.0501h.00052l.0496-.016.0496-.0165v-.2651h.2651v.2651h-.2651l.0331.0997c.011.033.0277.0607.0496.0827l-.0868.078-.0868.0791c.0165.0166.0248.0363.0248.0584v.00051c-.00033.021-.005.0373-.016.0481l-.00052.001.0827.0827.0827.0827c-.0221.0221-.0386.0496-.0496.0827l-.0331.0997.0331.0992h-.00052c.0221.0663.0665.11022.13281.13229l-.0496-.0165.0496.0171c.0331.0112.0688.0189.10749.0243v.00052c.0387.005.0799.008.12402.008h.66263l.0997-.0331c.0663-.0221.11022-.0665.13229-.13281l.0331-.0992h.00052l-.0336-.0992c-.0221-.0663-.066-.11074-.13229-.13281-.0331-.0112-.0688-.0195-.10749-.0248v-.00052c-.0387-.005-.0799-.008-.12402-.008h-.13229V240.88624c.00007-.0439.008-.08.0248-.10748.0165-.0271.0412-.046.0739-.0569.0663-.0221.11074-.0665.13281-.13281.0112-.0331.0195-.0688.0248-.10748l-.0951-.0289-.004-.001c-.0288-.0109-.0546-.0252-.0744-.045-.022-.022-.0385-.0498-.0496-.0827l-.00052-.00051c-.00037-.001-.00016-.003-.00052-.004h-.00051v-.001c-.0105-.0319-.0187-.0658-.0238-.10284l-.13642.004c-.0161.00047-.0315.00012-.0475.00051l.047-.001.13643-.004a.964505.964505 0 01-.008-.12403v-.00051c-.00002-.0438-.003-.0851-.008-.12351h.00051c.006.0387.008.0797.008.12402 0 .0883.0115.16524.0336.23151.0221.0662.0647.10935.12816.12868l.0951.0289c.005-.0387.008-.0804.008-.12454 0-.044.003-.0855.008-.12403l.0951-.0367c.0635-.0248.10661-.0707.12868-.13694.0112-.0331.0195-.0688.0248-.10749l-.0951.0372c-.019.007-.0333.0203-.0486.0315.0154-.0113.0294-.0245.0486-.032l.0951-.0372c.005-.0386.008-.0798.008-.12403v-.26506c0-.0442.003-.0854.008-.12402l.0951-.0372c.0635-.0248.1066-.0702.12867-.13642.0112-.0331.0195-.0693.0248-.10801.005-.0387.008-.0799.008-.12402v-.26456c0-.0883-.011-.16576-.0331-.23202.0113.0331.02.0688.0253.10748l.13643-.004.13643-.004v-.00052l.004-.13643.004-.12815h.25631l-.004.12815h-.00052l-.004.12868c.0386-.005.0744-.0137.10749-.0248h.00103v-.00051c.0659-.0221.10979-.0663.13178-.13229l.0331-.0992h.48059v-.12558c.0265-.005.0532-.011.0532-.0181 0-.007-.0266-.0127-.0532-.0181v-.10284h-.74517v-.00051h-1.06041l-.0331-.0992c-.0221-.0663-.066-.11075-.1323-.13281l-.0997-.0331v-.2651h-.26458l-.0331.0997h-.00051c.0111-.0331.0171-.0661.0171-.0992v-.00051c0-.0321-.006-.064-.016-.0961l-.001-.003c-.011-.0331-.0275-.0606-.0496-.0827h.00051c.0217.0219.0387.0494.0496.0822v.00052c.00035.001.00019.002.00052.003l.0326.0956h.2651v-.13229c0-.0664-.008-.12483-.0207-.1788a.666944.645736 0 00.55604-.63666.666944.645736 0 00-.33641-.56069c-.03-.019-.063-.0353-.0997-.0475l.0496.016-.0496-.0165c-.009-.003-.0193-.004-.0284-.006a.666944.645736 0 00-.20205-.031.666944.645736 0 00-.65681.53692l-.007-.003v.047a.666944.645736 0 00-.003.0646.666944.645736 0 00.003.0574v.0961l-.0992.0331c-.0663.0221-.12175.0551-.16588.0992-.0221.0221-.0468.0413-.0744.0579-.0276.0165-.0579.0303-.0909.0413l-.0491.0165-.0501.0171-.0992.0331c-.0663.0221-.11023.0688-.13229.14056h-.00052l-.0284.0925-.004-.002v.00052l-.0997.0331c-.0663.0221-.11023.066-.13229.13229-.0111.0331-.0303.0579-.0579.0744l-.0212.11214.0207-.11214c-.0276.0165-.0633.0248-.10749.0248h-1.05991c-.0439 0-.0772-.0109-.0992-.0326l-.0165.14883-.00052-.00052.0165-.14882h.00052c-.0221-.0221-.0336-.0551-.0336-.0992 0-.0442-.011-.0771-.0331-.0992h.00051l.11576-.0501c.0773-.0331.12676-.0826.14883-.14883l.0331-.0992.0997-.0331c.0663-.0221.11023-.0665.1323-.13281l.0331-.0992.0997-.0331c.066-.022.10964-.0659.13178-.13177h.00052v-.00104c.0112-.0331.0195-.0688.0248-.10748h.00052c.005-.0386.008-.0798.008-.12403v-.1328h-.00052v-.1323c0-.0442-.002-.0854-.008-.12402l-.0956-.0377-.0951-.0372.0744.0248.0248.008c-.0331-.0111-.0606-.0275-.0827-.0496v-.00051c-.0218-.022-.0386-.0498-.0496-.0827l.008.0248.0248.0744-.0372-.0951-.0372-.0951a.962077.962077 0 00-.12402-.008h-.52919c-.044 0-.0855.003-.12402.008v-.00052c-.037.005-.0709.0134-.10284.0238h-.001c-.001.00037-.002.00069-.004.001l-.00052.00052h-.00052c-.0654.0219-.10852.0657-.13074.13074l-.00052.001c-.0112.0331-.0195.0693-.0248.108l.12816-.004.12764-.004v.00052h.00051v.13229c0 .0442.003.0859.008.12454h-.00051a.972543.972543 0 01-.008-.12454v-.1322l-.12816.004-.12867.004c-.005.0386-.008.0798-.008.12402h-.00051v.13229l-.0987.0331c-.0663.0221-.11074.0665-.13281.13281l-.0331.0992-.0253.0749c.008-.0249.0165-.05.0248-.0749h-.26459v.00052h-.1328c-.0438.00002-.0857.002-.12403.008-.0384.005-.0745.0138-.10748.0248-.0663.0221-.12123.0551-.16537.0992-.0221.0221-.0468.0414-.0744.0579-.0276.0165-.0583.0308-.0915.0419l-.0496.0165-.0253.008-.0243.008-.0997.0331c-.0663.0221-.12123.0551-.16537.0992-.0442.0441-.0881.0881-.13229.1323-.0438.0438-.0772.0983-.0992.16381v.00052c-.00012.00039-.00039.00068-.00052.001v.00052c-.0112.0331-.0195.0688-.0248.10748-.005.0387-.008.0799-.008.12403V237.57164l-.0992.0331c-.0663.0221-.11075.0665-.13281.13281l-.0331.0992-.0992.0331c-.0663.0221-.11075.0665-.13281.13281h.00052c-.0112.0331-.0195.0688-.0248.10749h-.00052c-.005.0386-.008.0803-.008.12454v.1317l.0501.0165.0496.0165c.0331.0111.0606.0281.0827.0501.0218.0219.0386.0495.0496.0822v.00051l.0165.0496.0165.0496.0331.0992c.0221.0663.0665.11023.13281.13229l.0982.0326v.00052h.001v.1328l.00051.00052c0 .044.002.0855.008.12402.005.0384.0138.074.0248.10697v.00052c.0222.0656.0664.10984.13229.13178l.0992.0331v.00052l-.0501-.016-.0496-.0165c-.0331-.0111-.0606-.0275-.0827-.0496l-.0744.0744c-.0497.0497-.0744.0969-.0744.14108 0 .0442.0247.0909.0744.14056l.0744.0744c-.0221.0221-.0386.0496-.0496.0827-.0112.0331-.0195.0688-.0248.10748-.005.0386-.008.0798-.008.12403v.27337h-.00052v.1406h.00052c.0331 0 .0661.005.0992.0165.0214.007.0336.0175.0481.0269-.0144-.009-.0268-.0192-.0481-.0264-.0662-.0221-.13218-.0221-.19844 0-.0663.0221-.11075.066-.13281.13229l-.0331.0992h-.2651V238.63182h-.26459v.26459l-.0496-.0165-.0496-.0165h-.00052l-.00052-.00051c-.0328-.0111-.0603-.0272-.0822-.0491-.0221-.0221-.0385-.0495-.0496-.0827l-.0165-.0496-.0165-.0496h.2651v-.2651l-.0331-.0997c-.0221-.0663-.0665-.11023-.13281-.13229l-.0992-.0331h-.0103l-.0269-.0951c-.0193-.069-.0624-.11488-.12868-.13694l-.0992-.0331h-.00051v-.1322c0-.0442-.002-.0859-.008-.12454-.005-.0386-.0137-.0744-.0248-.10749-.0221-.0663-.0665-.11074-.1328-.1328l-.0992-.0331v.00052l-.0992-.0331-.0992-.0336.0744.0248.0248.008.0992.0331V236.90882c0-.0442.011-.0772.0331-.0992.022-.022.0559-.033.0997-.0331H120.88757v-.00052h.1328c.044 0 .085-.002.1235-.008h.00052c.0384-.005.074-.0138.10697-.0248.0662-.0221.10933-.0674.12867-.13643l.0269-.0956h.0114l.00052-.001.0977-.0326c.0663-.0221.11023-.0665.13229-.13281.0221-.0662.0336-.14318.0336-.23151v-.008c.00002.003.00052.005.00052.008v.00052c0 .0442-.002.0854-.008.12402l.10335-.0289c.069-.0193.11487-.0624.13694-.12867l.008-.0243h-.00051c.008-.0248.0165-.0496.0248-.0744v-.00052l-.13591.004-.12919.004v-.00052l.12919-.004.13591-.004v.00052h.00052v-.00052l.008-.0243.008-.0248.00052-.00051.008-.0248c.003-.008.005-.0165.008-.0248.0111-.0331.0281-.0606.0501-.0827.022-.0219.0492-.0386.0822-.0496l.0496-.0165.0501-.0171v.00052l.0331.0992c.0221.0663.066.11022.13229.13229l.0997.0336h.2651l.0992-.0336c.0663-.0221.11022-.066.13229-.13229l.0331-.0992v-.52968H123.66988c.0883 0 .16576-.0115.23203-.0336.0663-.0221.11022-.066.13229-.13229.0111-.0331.0171-.0661.0171-.0992 0-.0331-.005-.0661-.0165-.0992-.0221-.0663-.0666-.11074-.1328-.13281-.0663-.0221-.1437-.0331-.23203-.0331h-1.19216v.2651h-.00051v-.26459h-.1317c-.0442 0-.0854.002-.12402.008-.0386.005-.0744.0137-.10749.0248-.0663.0221-.11075.0665-.13281.13281h.00052l-.0331.0992h-.00052v.00051h-.1322c-.0441 0-.0859.002-.12454.008-.0386.005-.0743.0137-.10749.0248-.0659.022-.11146.0676-.13642.13591v.00052l-.00052.00051-.0341.0951H121.1535v-.5302l-.0331-.0992c-.0221-.0662-.0674-.10883-.13642-.12816l-.0956-.0269v-.0109l-.0336-.0992c-.0221-.0663-.066-.11023-.13229-.13229-.0331-.0112-.0693-.0195-.10801-.0248v.003c-.0384-.005-.0792-.008-.12299-.008zm-.12919.89451l.001.0284.00052.00051.004.12764c-.00032-.00004-.00076.00005-.001 0l-.004-.12764c-.0003-.009-.00026-.0194-.00052-.0289zm1.14618.19482c.003.001.007.002.0103.003.0662.0221.11208.0679.13694.13695l.0346.0956.12247-.004.12867-.004c.005-.0387.008-.0799.008-.12403v.13281h-.14029c.003-.00003.005-.00051.008-.00051h-.1266v.00051h-.001l-.0341-.0956c-.0248-.069-.0702-.11435-.13642-.13642zm-1.5477.0362c.00047 0 .00059.00051.001.00051h-.001zm-.0496.017c.0002-.00021.00082.0002.001 0-.011.011-.0165.0275-.0165.0496 0 .0219.006.0386.0165.0496l-.001-.00052c-.0111-.0111-.0165-.0275-.0165-.0496 0-.0221.006-.0381.0165-.0491zm.78703.091l.00051.00052c.0165.0166.0358.0248.0579.0248-.0221 0-.0413-.008-.0579-.0248l-.0785.0868-.0786.0868h-.00052v-.00052l.0786-.0868zm-.33952.10749c-.033.00005-.0657.006-.0987.0171-.033.011-.0603.028-.0816.0506-.0214.0227-.0368.051-.0465.0853l-.0289.10387c.0387-.005.0799-.008.12402-.008H120.35766v.00052H120.62277l-.0165.0491-.0165.0496v.00051c-.011.0328-.0278.0608-.0496.0827-.0221.0221-.0496.0385-.0827.0496-.0331.0112-.0693.0195-.10801.0248v.00052c-.0386.005-.0798.008-.12402.008H119.82752v.00052l-.13591.004-.13694.004v-.00103l.13591-.004.13642-.004.0331-.0992c.0221-.0663.0665-.11073.1328-.1328.0331-.0112.0688-.0195.10749-.0248l.0289-.10335c.01-.0345.0261-.0629.0475-.0858.0214-.0227.0482-.0402.0811-.0512.0331-.011.0661-.0165.0992-.0165zm.001 0c.0328.00011.0659.006.0987.0165l.00052.00052c-.033-.011-.0663-.0165-.0992-.0165zm1.21284.0248c-.0583.0239-.1.0664-.1204.13281l.005-.015c.011-.0296.0252-.0557.0455-.076.0186-.0185.0433-.0311.0698-.0419zm-1.87637.0243c.0216 0 .0375.005.0486.016l-.00052.00052c-.011-.0101-.0264-.0155-.0475-.0155-.0442 0-.0661.0221-.0661.0662 0 .044.0219.0659.0656.0661-.0004.00001-.00065 0-.001 0-.0441 0-.0661-.0225-.0661-.0667 0-.0221.005-.0385.0165-.0496h.00052l.00051-.00051c.0111-.0111.0275-.0165.0496-.0165zm1.72289.21601v.00052c-.0331 0-.0661.006-.0992.0165.0331-.0111.0661-.017.0992-.017zm-1.98799.0496h.00052v.00051c-.0221 0-.0414.008-.0579.0248v-.00052c.0164-.0164.0355-.0247.0574-.0248zm2.22002.0997h.00052c.00032.00094.00019.002.00051.003zm2.68304.0982h.13126c.0442 0 .0859.003.12454.008l.004.12867h.00052c.001.042.00096.0855.002.12816h-.26252v-.13229zm-3.44527.002h.00052l.0331.0992v.001c.0218.0654.0544.11999.0977.16382l.002.002v.00052l.002.002c.0214.0216.0408.046.0568.0729.0162.0273.0299.0573.0408.0899l.001-.00052.0331.0997H120.8887l-.0331-.0992c-.0221-.0663-.0665-.11074-.13281-.13281l-.0992-.0331.0165-.0496.0171-.0501c.0111-.0331.0275-.0606.0496-.0827.022-.0219.0497-.0386.0827-.0496l.0496-.0165zm1.0604 0l-.0248.0749.0253-.0749zm2.74971.0331l.002.00052c.0321.0111.0591.027.0806.0486v.00052c-.0221-.0221-.0496-.0386-.0827-.0496zm-3.41271.032c.0221 0 .0385.005.0496.0165l.00052.001c.011.011.0164.0273.0165.0491-.0002.0215-.006.0382-.0165.0491l-.00052.00051.001.001c-.0111.0111-.0275.0165-.0496.0165-.0221 0-.0385-.005-.0496-.0165l-.00052-.00052-.00051.00052c-.0111-.0111-.0165-.0275-.0165-.0496 0-.0221.005-.0385.0165-.0496l.00051-.00052-.00051-.00052v-.00051c.0111-.0111.0275-.0165.0496-.0165zm-.93121.0631h.00051l.004.13642h-.00052zm6.95409.20929h.26252v.2651h-.26252zm-3.15691.10955c.0221.0221.0496.0386.0827.0496l.0997.0331v.00052l-.0997-.0331c-.0331-.011-.0606-.028-.0827-.0501zm-4.76457.003c.0168.0175.0431.0314.0796.0419l-.0222-.006c-.0211-.009-.0425-.0179-.0548-.03v-.00052h-.00052c-.001-.001-.00082-.004-.002-.005zm4.41679.0806l.0992.0331c.0663.0221.11074.066.13281.13229l.0331.0997v.52968l-.0331.0992h-.00052v-.00052l.0331-.0987h-.52959v-.2651h.2651v-.00052h.26458v-.1323c0-.0442-.002-.0859-.008-.12454l-.12867-.004-.12816-.004v-.13281zm-3.5941.0424c.0247.0106.0485.0222.0662.0398.00069.00069.00094.002.002.003-.0197-.0192-.0435-.0316-.0682-.0424zm.0827.0233l.0496.11575c-.006-.0138-.0152-.0221-.0222-.0341l-.003-.007zm-.69608.0305l.001.002c.011.0329.0272.0607.0491.0827-.0221-.0221-.0386-.0495-.0496-.0827-.00024-.00089-.00041-.001-.00052-.002zm3.21376.23462l-.0248.0744-.002.004c-.003.006-.008.01-.0109.0165zm.4594.062h.00052l.004.13694h-.00051l-.004-.13643zm-3.93774.0377l-.0331.0992h.13281c.0436.00009.0767.0114.0987.0331h.00051c.0221.0221.0331.055.0331.0992v.1328h-.26562v-.2651zm3.50573.0667l.001.00052-.045.0155-.0496.0165.004.12816v.00051l.004.12816c-.037-.005-.0709-.0134-.10284-.0238l-.005-.002c.0331.0112.0688.0195.10749.0248l-.004-.12816-.004-.12816h-.2651v-.00051h.13229c.044 0 .0855-.003.12403-.008v.00051c.037-.005.0714-.0134.10335-.0238zm-3.66748.0367l-.12816.004v-.00052zm.75293.0274c.002.00052.004.00055.005.001.0661.022.12127.0557.16536.0997-.0442-.0442-.0991-.0771-.16536-.0992zm2.32389.13384h.00051c-.011.0331-.0225.0661-.0336.0992l-.008.0243h.00052c-.008.0249-.0165.05-.0248.0749-.0112.0335-.0282.061-.0506.0832.0221-.0221.0386-.0496.0496-.0827l.008-.0253c.003-.008.006-.0169.008-.0253l.008-.0248c.003-.008.005-.0163.008-.0243h.00051l.0248-.0744zm4.7625.0248h.00051c-.003.008-.006.0166-.008.0248zm-.0165.0496c-.003.008-.005.0162-.008.0243v.00051h-.00052v-.00051zm-.5395.0243h.00052v.00051h.2651v.52969h-.2651v-.00052l-.13643-.004-.13694-.004c.006-.0387.008-.0799.008-.12402v-.13281h.26511v-.13229zm-6.75721.00051h.13281l.0491.0165.03.0103.005.002.0139.005c-.0327-.011-.0678-.019-.10593-.0243v-.00051c-.0387-.005-.0799-.008-.12403-.008zm3.31246 0l-.005.0165-.003.008c-.008.0246-.0161.0493-.0243.0739-.0113.0339-.0259.0643-.0429.0925-.0163.0269-.0348.0518-.0563.0734-.0221.0221-.0418.0468-.0584.0744-.0166.0276-.0303.0579-.0413.091l-.0331.0997V238.10363h-.00052v-.2651l.0331-.0997c.011-.0331.0253-.0634.0419-.091s.0358-.0523.0579-.0744c.0217-.0217.0406-.0462.0568-.0734.0162-.0272.0298-.057.0408-.0894l.001-.003c.0109-.0328.0221-.0659.0331-.0987zm.53071.13178v.13229h-.00051v-.13178zm-3.71501.005h.00051c.00032.0102.00024.0208.00052.031zm.46818.062l-.10335.0372c.004-.001.006-.005.01-.006l.0191-.006zm-.72915.0661h.00052l.004.12868.004.12815c-.0387-.006-.0744-.0138-.10749-.0248h-.00052v-.00052c.0331.0112.0688.0195.10749.0248l-.004-.12816zm3.71037 0l.004.12868.001.00051.004.12764h-.00051c-.0386-.006-.0744-.0138-.10749-.0248-.0663-.0221-.0992-.055-.0992-.0992 0-.0442.0329-.0777.0992-.0997zm3.86488.0346c-.003.001-.005.004-.008.005l-.006.002-.0744.0248zm-6.6182.003c-.0317.01-.0615.0224-.0884.0382.00042-.00026.00013-.00082.00052-.001l.00051-.00051c.0215-.0129.0464-.0225.0713-.032zm1.39526.0625c-.0111.0328-.0272.0603-.0491.0822l.015.017.0636.0698.0785.0863-.00051.00051-.0786-.0868-.063-.0698-.0155-.017c.022-.022.0386-.0492.0496-.0822zm3.21376.032v.1323h-.00052v-.13178zm-.26562.00052h.00052c0 .044.002.086.008.12454.005.0384.0138.074.0248.10697l-.0165-.0491-.0165-.0501zm-5.56917.12816l-.0868.0791v-.00051zm5.03897.004h.00052v.1328zm-.70073.0315c.002.00051.004.00053.005.001.0331.011.0611.028.0832.0501-.0221-.0221-.0501-.0386-.0832-.0496zm3.69383.031l.0134.0119v.00052zm-4.40903.0119h.00051c.00061.00061.00045.001.001.002-.00063-.00066-.0009-.001-.002-.002zm.0243.0553c.00003.00097.001.002.001.003l-.00052.00051c0-.001-.00048-.002-.00051-.003zm-.7612.0357h.00052c.00034.001.00017.002.00051.003v.00052c.009.0284.0124.0568.0134.0853-.001-.0293-.004-.0586-.0145-.0879v-.00051zm-.19999.005c-.0106.0322-.0186.0665-.0238.10387-.005.0387-.008.0799-.008.12402v-.13229l.0165-.0496zm.57258.0207h.00052c.0275.0165.0574.0304.0904.0413l.0496.0171-.0496-.0165c-.0331-.0111-.0634-.0248-.0909-.0413zm-3.52847.0667h.00104l.004.13643.004.13694h-.00052l-.004-.13694zm5.30924.008l.0331.0992v.00051c.0221.0662.0551.12117.0992.16537.0221.0221.0413.0468.0579.0744.015.0251.0272.0535.0377.0832.00099.003.003.005.004.008l.008.0243h-.00052c.008.0249.0165.0496.0248.0744l.008.0248-.008-.0248.00052.00052h.2651v.00051h.2651v.26407h-.00052v.001l-.0987.0331c-.0661.022-.1107.0663-.13281.13229-.0111.033-.0195.069-.0248.10748l.12867-.004.12764-.004v.00051l-.12815.004-.12816.004c-.005.0387-.008.0804-.008.12454v1.19155h-.2651l-.0992.0336c-.0662.0221-.1047.0715-.11576.14883l-.0165.11472c-.0226.0221-.0341.0556-.0341.10025 0 .0446-.003.0861-.008.12506l-.12764.004-.12816.004V239.69563h-.26561v-.00052h.2651v-.1322c0-.0442-.002-.0854-.008-.12402-.005-.0386-.0137-.0744-.0248-.10749-.0221-.0663-.0666-.11074-.13281-.13281l-.0992-.0331v-.52968l.0331-.0997c.0221-.0663.0665-.11023.13281-.13229l.0992-.0331v-.1328c0-.0442.011-.0772.0331-.0992l-.14935-.0165-.14883-.0165v-.00052l.14883.0165.14935.0165c.0221-.0217.0553-.0325.0992-.0325h.1322zm-2.13734.00051h.00052v.00052c-.00007.0324-.005.0648-.016.0971l-.00052.001-.00052.00051c.0111-.0331.0165-.0661.0165-.0992zm1.20975 0h.13229v.00052h-.13222zm2.86545.0656c-.011.0221-.0165.0442-.0165.0661l-.00052.00051-.00052-.00051c.00001-.021.005-.042.0155-.0631zm-4.4974.008h.00052c-.0117.0116-.0141.0264-.0176.0408.004-.0142.006-.0293.017-.0408zm1.49914.0579h.00051V238.3514l-.00051.0181-.0326.0982c.011-.0327.019-.0684.0243-.10645h.00052c.005-.0387.008-.0804.008-.12454zm4.50515 0h.00052v.12299h-.00052zm-.59635.00051h.00052c0 .0221-.008.0413-.0248.0579h-.00052v-.00051c.0162-.0164.0247-.0356.0248-.0574zm-4.43435.004l.004.13591c.0386-.005.0798-.008.12402-.008h.1322v.26458h-.26458v-.001l-.0496-.0165-.0496-.0165c-.0331-.0111-.0579-.0243-.0744-.0408l-.001.00052c-.0165-.0166-.0248-.0363-.0248-.0584 0-.0442.0335-.0772.0997-.0992.0331-.0112.0688-.0195.10749-.0248zm.293.0279h.001l-.0331.0992h-.001zm-.91002.0171h.00052l.0744.0744.0739.0739-.00052.00052-.0744-.0744-.0739-.0739zm4.14549.003c.017.0188.0443.0347.0827.047l-.015-.005c-.0266-.0102-.0503-.0214-.0646-.0357l-.0129.0119h-.00052l-.0693.0625-.0827.0744-.00052-.00052.0827-.0744.0827-.0744c-.002-.002-.002-.004-.003-.006zm-1.60404.006h.00103c.0164.0274.0355.052.0574.0739h-.00051l-.002-.002c-.0211-.0214-.0399-.0453-.0558-.0718zm-2.57504.0109c-.0128.009-.0244.0183-.0398.0243l-.003.00052c.0168-.005.029-.016.0429-.0248zm3.03134.063l.0992.0331c.0327.0109.0602.0279.0822.0496-.022-.0217-.0494-.0382-.0822-.0491l-.0992-.0331zm2.91507 0l.0997.0331c.0331.011.0606.028.0827.0501-.0221-.0221-.0501-.0386-.0832-.0496l-.0992-.0331zm-8.21552.00052h.00052l.004.12815.00052.00052.004.12816h-.00052l-.004-.12868zm6.89054 0h.2651v.2651H127.51229v.26458h.2651v.1328c0 .0442-.011.0772-.0331.0992-.0221.0221-.0551.0331-.0992.0331-.044 0-.0771-.0112-.0992-.0331h-.00051l-.14883.0165c-.0969.0108-.17694.0273-.24237.0486.0315-.0102.0648-.0187.10129-.0238l-.004-.13643-.004-.13694h-.5302v-.26458h.26459v-.26459l-.12816.004-.12868.004c-.005.0386-.008.0798-.008.12402zm1.32498.13229h.00052c0 .0883.011.16577.0331.23203.0221.0662.007.12256-.0455.16949h-.00051l-.0786.0708-.00052-.00052.0791-.0703c.0524-.0469.0675-.10375.0455-.17001-.0221-.0663-.0331-.14317-.0331-.23151zm-2.15336.0326l.00052.00052c.009.0255.0136.054.0186.0827-.005-.0289-.0106-.0577-.0191-.0832zm1.59009.00052h.00051l.0331.0992h.2651l.002-.0749c-.002.0698-.003.1391-.003.20722V238.63476h-.26458zm-1.56528.10749h.00051c.005.0386.008.0798.008.12402l.00051.00052c0 .0883.011.16525.0331.23151l-.002-.005c-.0211-.0653-.032-.14094-.032-.22738 0-.044-.003-.0855-.008-.12402zm-3.56929.0579c.0214 0 .0427.006.0641.016l.002.001c-.0221-.0111-.0441-.0165-.0661-.0165-.0221 0-.0386.005-.0496.0165-.0111.0111-.0165.0275-.0165.0496 0 .0442-.0248.0914-.0744.14107l-.0744.0744h-.00051l-.00052-.00052.0744-.0744c.0497-.0497.0744-.0964.0744-.14056 0-.0221.005-.0386.0165-.0496h.00104v-.00052c.0111-.0111.0275-.0165.0496-.0165zm.1328.0661c.0442.0442.0996.0771.16589.0992l.0992.0331v.00052l.0992-.0331c.0331-.011.0606-.0275.0827-.0496v.00051c-.0221.0221-.0496.0386-.0827.0496l-.0997.0331-.0992-.0331c-.0662-.0221-.12117-.0556-.16537-.0997zm-3.25509.0424l.00051.00051c-.00091.0009-.002.0007-.003.002.00084-.00079.002-.001.003-.002zm-.0548.0238c-.00096.00003-.002.001-.003.001l-.00052-.00052c.001 0 .002-.00047.003-.00051zm.39429.0672v.00051l-.0992.0331-.0248.008-.0734.0243.0982-.0331zm-.19792.0672l-.0248.0744-.00051.002c-.003.006-.008.01-.0108.0155zm.16485.0326h.00051c-.011.0331-.028.0606-.0501.0827h-.00052c-.0219.0218-.0488.0393-.0816.0501-.004.001-.009.00091-.0129.002.004-.001.008-.001.0119-.003.0331-.011.0606-.0275.0827-.0496.0221-.0221.0391-.0495.0501-.0827zm8.42997.0744c-.003.005-.002.0118-.007.0165h-.00052c-.006.006-.0196.0105-.0284.016l-.0615.009c.0484-.007.0797-.0213.0977-.0413zm-1.67225.0579l-.0491.0165-.0501.0165-.0496-.0165-.0465-.0155c.0319.0103.0642.016.0961.016h.00051c.033-.00006.0657-.006.0987-.0171zm-7.05331.0289c-.01.0009-.0165.004-.0264.005h-.0421c.0244 0 .046-.003.0687-.005zm.85886.003v.00052l.0248.008.0248.008zm-.93121.005h.008c-.003.00011-.005.00043-.008.00052l-.12867.004zm9.04338.0248c-.007.003-.0104.008-.0165.0109l-.004.002-.0744.0243zm-4.50154.004c-.0329.011-.0607.0281-.0827.0501v-.00052c.0221-.0221.0496-.0386.0827-.0496zm-4.06487.0579c-.00065.00062-.001.00091-.002.002v-.00052c.00061-.0006.001-.00044.002-.001zm7.41092.0419h.00052c0 .0221.005.0441.0165.0661l-.001-.002c-.0104-.0214-.016-.0427-.016-.0641zm-.29869.0331h.00104l-.002.005c.00051-.002.00053-.004.001-.005zm-5.59759.0992v.2651h-.2651v-.00052l.0165-.0491.016-.0501.00051-.00051c.011-.0326.0279-.0593.0496-.0811v-.00052c.022-.0218.0498-.0386.0827-.0496zm2.64997 0V239.56254h-.00052v-.13172l-.12557.004zm1.98747 0h.1323v.00052h-.1328zm.3974.002h.2651v.13126l.00051-.00052v.13229h.2651v.00052h-.26561l-.0992.0331c-.0663.0221-.11074.066-.13281.13229l-.0331.0997-.0165.0496-.0165.0496c-.011.033-.0277.0607-.0496.0827-.0221.0221-.0495.0385-.0827.0496l.0248-.008.0744-.0243-.0992.0331-.0997.0331v.26458l-.12816-.004-.12816-.004c.005.0385.0138.075.0248.10801l-.0165-.0496-.0165-.0496v-.52969h-.00051v-.26458h.00051l.0992-.0336c.0331-.011.0606-.0275.0827-.0496l.0791.0786.0786.0791c.0166-.0276.0358-.0524.0579-.0744.0442-.0442.0772-.0996.0992-.16588zm1.30844.015h.00052c.0222.022.0391.0495.0501.0827.0221.0663.008.12448-.0419.17415h-.00052c.0497-.0497.0634-.10789.0413-.17415-.011-.0331-.0277-.0606-.0496-.0827zm-2.07016.14882h.00052c-.0112.0331-.0195.0688-.0248.10749h-.00052c.006-.0386.0138-.0744.0248-.10749zm2.00402.18242h.00051c.0218.0219.0381.0495.0491.0822-.011-.0329-.0276-.0602-.0496-.0822zm.0517.0868l.00052.001c.008.0235.0121.0503.0171.0765-.005-.0264-.01-.0527-.0176-.0765zm-6.59391.0951v.00052l-.0501.0165zm1.32498.00052v.2651h-.00051v-.26458l-.12403.004zm4.24006 0h.2651l-.0331.0992c-.0221.0663-.0665.11075-.13281.13281l-.0992.0331v-.13281zm-5.66477.0326h.00051l-.00051.00051zm-1.14464.14934c.0214.0214.0478.0368.0796.0465l.0724.0227-.0724-.0222-.004-.001c-.0291-.011-.0549-.025-.0749-.045-.00026-.00026-.00026-.0008-.00052-.001zm-.2496.11524c.001.00033.002.00018.003.00052l.0248.009-.0248-.008zm7.91838.20154c.0118-.0005.0233.002.0346.007-.0114-.005-.0229-.007-.0346-.007zm-7.74991.031v.00052l-.0992.0331-.0248.008-.0744.0243.0992-.0331zm7.52099.0336c.0328.0111.0603.0272.0822.0491l-.00051.00051c-.0218-.0218-.049-.0386-.0816-.0496zm-2.48512.0987v.13229h-.00052v-.13178zm1.1343.0413c.0164.0165.0355.0247.0574.0248-.0219 0-.041-.008-.0574-.0243zm-.41445.017h.00052c-.0166.0276-.0363.0523-.0584.0744.0221-.0221.0413-.0468.0579-.0744zm1.79731.0744h.1318l.00052.001.11885.0103c-.0867-.007-.17119-.0114-.25114-.0114zm-1.5906.0662c-.0219.00012-.0409.009-.0574.0253l-.00052-.00052c.0166-.0165.0358-.0248.0579-.0248zm-3.21014.006c-.0283.026-.0478.0607-.0563.10646l.009-.0475c.009-.0164.0163-.0343.0289-.047v-.00052c.005-.005.0128-.007.0186-.0114zm3.26026.0114c.0111.0111.0171.0275.0171.0496 0 .0221-.009.0413-.0253.0579.0166-.0166.0248-.0358.0248-.0579 0-.0219-.006-.0386-.0165-.0496zm-3.66386.0119l-.006.0207c-.0107.0252-.0224.0493-.0403.0672-.0197.0197-.0453.033-.0739.0439.06-.0233.10112-.0661.11937-.13125zm-3.37498.53692c.0221.0652.0551.11922.0987.16278.0442.0442.0777.0996.0997.16588v.001c-.0221-.0663-.0556-.12175-.0997-.16588-.0438-.0438-.0766-.0983-.0987-.16381zm9.23767.0351h.00052l.004.12867H127.51268v-.00052h.2651zm-.79064.12764h.2651v.00051h-.2651z"/><text y="236.05739" x="127.6671" style="line-height:1.25;-inkscape-font-specification:'Arial Bold'" font-weight="700" font-size="2.642782" font-family="Arial" letter-spacing="0" word-spacing="0" stroke-width=".06607"><tspan style="-inkscape-font-specification:'Arial Bold'" y="236.05739" x="127.6671">E</tspan></text></g></svg>